<svg width="1991" height="557" viewBox="0 0 1991 557" fill="none" xmlns="http://www.w3.org/2000/svg">
<path d="M1091.73 275.534V550.867H1039.73H987.733V292.467V34.2006L1038.13 17.2673C1065.73 8.06732 1089.2 0.333984 1090.13 0.333984C1091.33 0.200623 1091.73 56.0673 1091.73 275.534ZM237.733 16.0674C286.267 23.5341 338 49.0006 380.667 86.4673L384.8 90.2006L352.4 131.934C334.667 154.867 319.867 173.934 319.467 174.201C319.2 174.467 313.6 170.201 307.067 164.734C276.4 139.134 245.2 122.467 218 117.401C206.133 115.134 187.2 115.401 177.467 117.934C150.8 124.867 136.933 140.201 136.667 162.867C136.267 188.067 147.867 196.467 226.4 227.934C298 256.734 318.133 266.734 340.4 284.734C379.733 316.467 396 363.667 387.6 420.867C384.4 442.334 374.133 465.934 359.733 485.401C334.533 519.267 289.2 544.601 241.067 551.401C188 558.867 139.333 551.534 92.4 529.001C64.1333 515.534 44.9333 501.534 17.4667 474.467L0 457.267L35.3333 414.734L70.6667 372.334L81.7334 385.934C101.467 410.334 118.133 424.734 139.333 435.401C160.267 445.934 181.6 450.867 205.867 450.867C241.733 450.867 266.267 440.201 276.133 420.201C278.533 415.134 279.067 412.067 279.067 400.201C279.067 383.667 277.2 379.134 266.8 369.534C254 357.534 242.267 351.801 187.733 330.867C134.933 310.601 104.267 295.534 85.0667 280.867C74.6667 272.734 55.6 252.867 50.1333 244.201C33.0667 217.401 26.9333 194.067 28.1333 160.067C28.9333 135.934 31.8667 123.801 42.4 102.201C74 37.134 151.867 2.73407 237.733 16.0674ZM1979.73 214.867V268.067L1905.2 268.467L1830.67 268.867L1827.07 272.201C1819.73 279.001 1818.13 285.801 1821.6 294.201C1825.2 302.867 1828.4 303.667 1859.47 304.601C1891.2 305.401 1901.33 307.667 1922.13 318.067C1976.8 345.534 2003.73 410.601 1984.4 469.001C1977.33 490.201 1961.87 512.334 1944.67 526.201C1931.33 536.867 1911.2 547.001 1895.07 551.001C1883.33 554.067 1881.33 554.067 1797.87 554.601C1751.07 554.867 1711.33 554.734 1709.6 554.334L1706.4 553.534V500.867V448.334L1788.13 447.934C1863.73 447.534 1870 447.401 1874.13 445.134C1886 438.734 1886.67 421.801 1875.47 414.867C1871.6 412.467 1868.8 412.201 1851.73 412.201C1819.2 412.201 1800.13 408.201 1778.67 396.867C1750.8 382.067 1729.33 356.601 1719.2 326.334C1713.07 308.067 1711.2 279.801 1715.07 261.667C1725.2 213.134 1763.73 174.201 1812.4 163.534C1818.53 162.201 1839.07 161.667 1900.13 161.667L1979.73 161.534V214.867ZM667.067 170.867C730.8 177.001 781.6 207.801 815.467 261.134C851.867 318.334 854.667 392.601 822.667 453.534C812.933 472.334 805.2 482.734 789.067 499.001C763.467 524.867 739.2 539.267 702.4 550.601C681.067 557.134 640.933 558.601 616.133 553.667C591.2 548.734 569.067 539.801 547.467 526.067C542.267 522.601 537.2 519.267 536.267 518.334C535.2 517.534 531.067 513.801 526.667 510.201C518.267 503.001 510 493.801 515.2 497.534C516.8 498.601 522.133 502.734 527.2 506.467C537.333 514.201 563.467 527.667 577.067 532.201C593.2 537.534 610.533 540.201 630.267 540.201C668.533 540.201 698 531.401 729.6 510.467C750.267 496.867 780.267 464.201 784.4 450.867C784.933 449.001 782.667 451.401 779.067 456.201C770.133 468.334 751.467 486.467 740 494.067C729.467 501.001 710.4 510.867 707.467 510.867C706.4 510.867 705.067 511.401 704.4 511.934C702.667 513.401 695.333 515.401 681.733 518.334C674.4 519.801 664.8 520.601 651.067 520.467C634 520.467 628.933 519.934 616.8 517.001C588.533 509.934 562.267 496.067 546.533 479.667C540.267 473.134 542.133 473.667 552 481.001C562.933 489.134 584.267 499.267 597.733 502.867C650 516.467 703.067 501.134 740.8 461.534C746.933 455.001 759.067 437.801 758.133 436.867C757.733 436.467 754.4 440.067 750.667 444.734C718 484.867 662.4 500.867 612.8 484.067C596.4 478.601 577.733 467.667 569.733 458.734C566.133 454.867 566.133 454.601 569.067 456.601C583.733 466.467 597.867 473.134 612.4 477.001C625.467 480.334 654 480.334 667.067 477.001C708.8 465.934 740.133 435.001 751.867 392.867C754.4 384.067 754.933 378.867 754.933 362.867C754.933 344.867 754.667 342.601 750.667 330.201C739.2 293.934 714.133 267.134 679.733 254.334C664 248.467 658.267 247.534 639.733 247.534C616.667 247.534 600.933 251.667 580.8 263.134C575.867 265.934 571.333 268.201 570.933 268.201C568.4 268.201 587.467 254.867 596.133 250.601C616 240.601 630.533 237.267 653.733 237.267C680.667 237.401 702.267 243.934 724.4 258.867C734.667 265.801 752.4 283.534 758.267 292.867C762.667 299.801 764.8 299.534 760.8 292.467C747.6 268.601 724.667 246.734 700.4 234.867C665.6 217.801 631.467 214.467 595.067 224.734C582.8 228.201 572.133 233.134 558.133 241.801C552.4 245.267 547.333 248.201 546.933 248.201C545.067 248.201 555.6 239.534 566.133 232.601C596.133 212.734 633.067 203.134 665.6 206.867C695.2 210.201 719.733 219.001 742 234.467C753.867 242.734 772.133 261.001 780.8 273.401C791.067 287.934 789.2 281.801 778.533 265.534C756 231.134 724.4 207.267 684.4 194.201C653.733 184.201 618 183.401 586.4 191.801C567.2 196.867 544.8 207.401 529.067 218.734C517.067 227.401 515.733 228.067 521.067 222.334C537.733 204.601 574.667 184.067 603.733 176.467C613.2 173.934 629.867 171.267 641.733 170.334C644.667 170.201 648.267 169.934 649.733 169.801C651.2 169.667 659.067 170.201 667.067 170.867ZM1338.13 171.134C1339.33 172.334 1339.73 199.401 1339.73 284.734C1339.73 405.401 1339.6 401.801 1346.67 416.201C1351.73 426.334 1367.33 440.867 1379.33 446.601C1389.73 451.534 1389.87 451.534 1407.07 451.534C1424.27 451.534 1424.53 451.534 1434.8 446.601C1452.13 438.334 1466.13 422.867 1472.27 405.134C1475.07 397.001 1475.07 395.001 1475.73 283.534L1476.4 170.201H1526.8H1577.2L1577.07 287.401C1577.07 399.267 1576.93 405.267 1574.4 417.801C1565.87 459.401 1543.33 495.267 1510 520.334C1492.13 533.801 1467.73 545.534 1450 549.401C1417.73 556.467 1393.33 556.334 1362.93 549.001C1349.47 545.801 1323.33 533.934 1311.2 525.667C1294.67 514.067 1272.67 491.667 1263.2 476.334C1254.93 463.267 1245.33 441.401 1242.27 428.867C1237.33 408.201 1237.07 403.534 1237.07 285.134V169.534H1286.8C1323.73 169.534 1336.93 169.934 1338.13 171.134Z" fill="black"/>
</svg>
