<svg width="332" height="388" viewBox="0 0 332 388" fill="none" xmlns="http://www.w3.org/2000/svg">
<path d="M154.067 1.53357C217.8 7.6669 268.6 38.4669 302.467 91.8002C338.867 149 341.667 223.267 309.667 284.2C299.933 303 292.2 313.4 276.067 329.667C250.467 355.534 226.2 369.934 189.4 381.267C168.067 387.8 127.933 389.267 103.133 384.334C78.2 379.4 56.0667 370.467 34.4667 356.734C29.2667 353.267 24.2001 349.934 23.2667 349C22.2001 348.2 18.0667 344.467 13.6667 340.867C5.26669 333.667 -2.99986 324.467 2.20014 328.2C3.80014 329.267 9.13341 333.4 14.2001 337.134C24.3334 344.867 50.4667 358.334 64.0667 362.867C80.2001 368.2 97.5334 370.867 117.267 370.867C155.533 370.867 185 362.067 216.6 341.134C237.267 327.534 267.267 294.867 271.4 281.534C271.933 279.667 269.667 282.067 266.067 286.867C257.133 299 238.467 317.134 227 324.734C216.467 331.667 197.4 341.534 194.467 341.534C193.4 341.534 192.067 342.067 191.4 342.6C189.667 344.067 182.333 346.067 168.733 349C161.4 350.467 151.8 351.267 138.067 351.134C121 351.134 115.933 350.6 103.8 347.667C75.5334 340.6 49.2667 326.734 33.5334 310.334C27.2667 303.8 29.1334 304.334 39.0001 311.667C49.9334 319.8 71.2667 329.934 84.7334 333.534C137 347.134 190.067 331.8 227.8 292.2C233.933 285.667 246.067 268.467 245.133 267.534C244.733 267.134 241.4 270.734 237.667 275.4C205 315.534 149.4 331.534 99.8 314.734C83.4 309.267 64.7334 298.334 56.7334 289.4C53.1334 285.534 53.1334 285.267 56.0667 287.267C70.7334 297.134 84.8667 303.8 99.4 307.667C112.467 311 141 311 154.067 307.667C195.8 296.6 227.133 265.667 238.867 223.534C241.4 214.734 241.933 209.534 241.933 193.534C241.933 175.534 241.667 173.267 237.667 160.867C226.2 124.6 201.133 97.8002 166.733 85.0002C151 79.1336 145.267 78.2002 126.733 78.2002C103.667 78.2002 87.9334 82.3336 67.8 93.8002C62.8667 96.6002 58.3334 98.8669 57.9334 98.8669C55.4001 98.8669 74.4667 85.5336 83.1334 81.2669C103 71.2669 117.533 67.9335 140.733 67.9335C167.667 68.0669 189.267 74.6003 211.4 89.5336C221.667 96.4669 239.4 114.2 245.267 123.534C249.667 130.467 251.8 130.2 247.8 123.134C234.6 99.2669 211.667 77.4002 187.4 65.5336C152.6 48.4669 118.467 45.1335 82.0667 55.4002C69.8 58.8669 59.1334 63.8002 45.1334 72.4669C39.4 75.9335 34.3334 78.8669 33.9334 78.8669C32.0667 78.8669 42.6 70.2002 53.1334 63.2669C83.1334 43.4002 120.067 33.8002 152.6 37.5336C182.2 40.8669 206.733 49.6669 229 65.1335C240.867 73.4002 259.133 91.6669 267.8 104.067C278.067 118.6 276.2 112.467 265.533 96.2002C243 61.8002 211.4 37.9336 171.4 24.8669C140.733 14.8669 105 14.0669 73.4 22.4669C54.2 27.5335 31.8 38.0669 16.0667 49.4002C4.06671 58.0669 2.73338 58.7335 8.06671 53.0002C24.7334 35.2668 61.6667 14.7336 90.7334 7.13354C100.2 4.60022 116.867 1.9335 128.733 1.00018C131.667 0.866852 135.267 0.600189 136.733 0.466858C138.2 0.333527 146.067 0.866913 154.067 1.53357Z" fill="white"/>
</svg>
